<svg id="Layer_1" data-name="Layer 1" xmlns="http://www.w3.org/2000/svg" viewBox="0 0 425.2 425.2"><defs><style>.cls-1{fill:#be1e2d;}</style></defs><title>taihoa copy</title><path class="cls-1" d="M155.35,201.34c0,2.79,1.83,5.06,4.08,5.06h11.33c2.26,0,4.08-2.27,4.08-5.06V95c0-3.37.24-16.58.28-25.43,0-4.56-2.32-8.26-6-8.26H120c-2,.3-3.58,2.53-3.58,5.06V80.42c0,2.73,1.71,5,3.75,5.06h35.17Z"/><path class="cls-1" d="M230.55,89.35H186.68A7.7,7.7,0,0,0,179.42,97V201.93a4.18,4.18,0,0,0,4.08,4.41h11.25a4.11,4.11,0,0,0,4.16-4.08v-29.6h15.41a4,4,0,0,1,4.08,4v25.61a4.11,4.11,0,0,0,4.16,4.08h11.25a4.18,4.18,0,0,0,4.08-4.41V97A7.65,7.65,0,0,0,230.55,89.35ZM218.4,149.16a4,4,0,0,1-4.08,4H203a4,4,0,0,1-4.08-4.08v-32.4c0-1.34.11-2.62.11-3.73,0-2.14,1.34-3.88,3.06-3.88l12.24-.06a4,4,0,0,1,4.08,4Z"/><path class="cls-1" d="M295.17,182.35H279.1V85h15.31c1,0,1.72-2.23,1.72-5.06V65.89c0-2.83-.76-5.06-1.72-5.06H245.49c-1,0-1.72,2.23-1.72,5.06V80c0,2.83.76,5.06,1.72,5.06h14.12v97.33H245.39c-1,0-1.71,2.22-1.71,5.06v14.06c0,1.06.11,2,.13,2.85,0,1.21.75,2.21,1.73,2.21h46.52c4.07,0,4.82-2.23,4.82-5.06V187.41C296.88,184.57,296.13,182.35,295.17,182.35Z"/><path class="cls-1" d="M170.76,221.61H159.43c-2.25,0-4.08,2.27-4.08,5.07v62.6c0,2.74-1.72,5-3.92,5.07-3.83.1-7.74.1-11.58,0-2.2-.1-3.91-2.33-3.91-5.07V124.35c0-2.79-1.82-5-4.08-5H120.54c-2.26,0-4.09,2.27-4.09,5.07V362c0,2.79,1.83,5.06,4.08,5.06h11.33c2,0,3.75-1.83,4-4.37V327.12c-.1-1.43-.11-2.74-.19-3.88-.16-2.48,1.33-4.64,3.33-4.64h12.26c2.26,0,4.09,2.27,4.09,5.07V362c0,2.79,1.82,5.06,4.07,5.06h11.33c2.25,0,4.08-2.28,4.08-5.08V226.67C174.83,223.87,173,221.61,170.76,221.61Z"/><path class="cls-1" d="M222.74,254.63a244.27,244.27,0,0,0-28.38,0,15.26,15.26,0,0,0-14.84,15.12v81.81a17.81,17.81,0,0,0,.41,3.55,15.15,15.15,0,0,0,11.58,11.18,16.31,16.31,0,0,0,2.85.39,244.26,244.26,0,0,0,28.38,0,15.38,15.38,0,0,0,14.84-15.12V269.75A15.38,15.38,0,0,0,222.74,254.63Zm-4.49,86.07a7.18,7.18,0,0,1-.65,2.91,7,7,0,0,1-3.91,3.78A8.55,8.55,0,0,1,211,348c-3.18.24-7.18.55-10-2.28a7,7,0,0,1-2.12-5V280.32c0-3.77,2.44-6.83,5.48-6.89l6.67-.14a8.55,8.55,0,0,1,2.69.63,7,7,0,0,1,3.91,3.78,7.22,7.22,0,0,1,.65,2.92Z"/><path class="cls-1" d="M186.49,76.11l39.78,8.56a3.9,3.9,0,0,0,.66.07c2.38,0,4.3-2.63,4.81-5.38l.28-1.61A6,6,0,0,0,228,70.89L188.09,59.55a3.7,3.7,0,0,0-3.61,1,6.48,6.48,0,0,0-2,4.5l-.2,4.62C182.29,72.88,184.05,75.6,186.49,76.11Z"/><path class="cls-1" d="M185.05,237.77l39.77,8.56a3.79,3.79,0,0,0,.67.06c2.37,0,4.3-2.62,4.8-5.37l.28-1.61a6.07,6.07,0,0,0-4.06-6.87L186.63,221.2a3.72,3.72,0,0,0-3.6,1,6.48,6.48,0,0,0-2,4.5l-.2,4.62C180.84,234.54,182.6,237.26,185.05,237.77Z"/><path class="cls-1" d="M294.76,221.51H250.89c-4,.3-7.26,4.36-7.26,9.54V361.61c0,3.15,1.8,5.49,4.08,5.49H259c2.29,0,4.16-2.24,4.16-5.08V318.57h15.41c2.28,0,4.08,2.23,4.08,5V362c0,2.84,1.87,5.08,4.16,5.08H298c2.28,0,4.08-2.34,4.08-5.49V231.05C302.1,225.87,298.92,221.81,294.76,221.51Zm-12.15,67.73c0,2.8-1.83,5.06-4.08,5.06H267.21c-2.26,0-4.09-2.27-4.09-5.08v-33.7c0-1.54,0-3-.06-4.34-.17-2.75,1.47-5.13,3.69-5.14l11.78-.07c2.28,0,4.08,2.24,4.08,5Z"/><path class="cls-1" d="M301.41,409.92a41.84,41.84,0,0,0,24.47-11.74,54,54,0,0,0,15.26-29c5.87-30.77,8.68-87.46,10.11-156.21-1.43-68.76-2.64-125.13-8.51-155.9a53.64,53.64,0,0,0-16.3-30A41.54,41.54,0,0,0,303,16.38l-4.3-.46a848.21,848.21,0,0,0-180.92,0l-4.29.46A41.57,41.57,0,0,0,90.08,27.13a53.64,53.64,0,0,0-16.3,30c-5.87,30.77-7.08,87.14-8.5,155.9,1.42,68.75,4.23,125.44,10.1,156.21a54,54,0,0,0,15.26,29,41.84,41.84,0,0,0,24.47,11.74l2.85.3a841.33,841.33,0,0,0,180.6,0Zm-185.89-20.4c-11-1.19-20-10.43-22.44-23-5.78-30.32-8.43-86-9.86-153.55,1.43-67.57,2.45-122.9,8.23-153.22,2.4-12.56,11.41-21.79,22.44-23l2.45-.26a854.65,854.65,0,0,1,183.84,0l2.45.26c11,1.2,20.05,10.43,22.44,23,5.78,30.32,6.8,85.65,8.23,153.22-1.43,67.58-4.08,123.23-9.86,153.55-2.39,12.56-11.41,21.8-22.44,23l-1,.11a849.32,849.32,0,0,1-183.54,0Z"/></svg>